<?xml version="1.0" encoding="UTF-8"?>
<svg id="Layer_1" xmlns="http://www.w3.org/2000/svg" version="1.1" viewBox="0 0 2352.76 1133.86">
  <!-- Generator: Adobe Illustrator 29.8.2, SVG Export Plug-In . SVG Version: 2.1.1 Build 3)  -->
  <defs>
    <style>
      .st0 {
        fill: #fff;
      }

      .st1 {
        fill: #213266;
      }

      .st2 {
        fill: #1d7d48;
      }
    </style>
  </defs>
  <g>
    <path class="st0" d="M1081.38,688.17l-130.54-58.12-8.15,2.44-.92.98c-57.76,61.69-115.55,125.26-171.43,186.73l-13.67,15.04-13.23,17.66h216.16l121.79-164.73Z"/>
    <path class="st0" d="M1154.76,955.33c-52,0-104.01,0-156,0l-993.17.03v98.87h4.98c139.98-.03,279.96-.01,419.95,0,150.94.01,307.02.03,460.52,0l2.39-.03c33.25,0,66.51.02,99.77.04,29.2.02,58.7.04,88.38.04,65.79,0,132.38-.11,198.21-.56l3.12-.02,46.86-98.36h-7.87c-55.71-.01-111.43,0-167.15,0Z"/>
    <path class="st0" d="M1546.3,184.44c8.61,0,17.37-1.17,26.09-3.56,24.75-6.78,43.96-21.37,55.55-42.21,10.4-18.69,13.86-41.16,9.76-63.28-4.14-22.3-15.62-42.04-32.33-55.57-18.83-15.24-43.23-21.91-70.56-19.26-33.76,3.27-65.92,29.49-76.46,62.34-10.73,33.44-2.86,68.2,21.06,93,17.94,18.6,41.79,28.53,66.89,28.53Z"/>
    <path class="st0" d="M1541.17,916.95l.64-3.24-1.37,3.24h-29.75l-34.47,77.37-1.92-77.37h-71.66l-35.32,169.09h50.54l16.39-88.92c.17,11.57.18,23.22.2,34.57.02,16.23.05,33.02.51,49.53l.14,4.82h44.68l33.46-79.17-15.66,79.17h53.25l32.83-169.09h-42.49Z"/>
    <path class="st0" d="M2236.37,955.34h-45.68c-3.66,0-5.17,2.71-5.93,5.44-13.18-11.05-32.68-9.71-48.05-3.96-35.94,13.44-52.16,64.42-41.63,97.67,4.52,14.29,15.71,24.57,30.69,28.21,11.61,2.82,23.74,1.17,33.9-4.27-2.12,6.12-5.72,11.93-10.43,15-3.97,2.59-8.19,2.9-12.9.95-2.54-1.06-3.15-3.24-3.6-5.57-.86-4.51-3.67-5.18-5.27-5.18h-46.05l-.14,4.81c-.37,12.84,3.9,23.32,12.7,31.14,11.87,10.55,30.18,14.29,47.16,14.29,5.73,0,11.3-.42,16.43-1.16,20.78-2.97,35.73-13.59,45.72-32.49,8.44-15.96,12.08-35.23,15.61-53.87,1.02-5.42,1.99-10.54,3.07-15.54,5.3-24.61,9.83-48.05,13.45-69.69l.97-5.77ZM2145.74,1033.79c-1.4-9.74,1.97-25.87,9.22-34.37,3.16-3.71,6.76-5.64,10.69-5.72.1,0,.21,0,.31,0,4.13,0,5.76,1.85,6.73,3.47,5.04,8.47.31,28.71-4.17,36.45-3.52,6.08-10.62,10.01-16.14,8.96-3.66-.7-5.9-3.66-6.63-8.78Z"/>
    <path class="st0" d="M1684.64,963.49c-14.8-10.7-37.03-13.88-59.48-8.49-36.93,8.86-57.04,49.81-54.48,82.67,2.3,29.65,21.04,48.77,50.11,51.15,2.65.22,5.35.33,8.11.33,27.78,0,59.58-11.59,67.84-45.28l1.5-6.13h-47.09c-2.98,0-4.34,2.13-5.55,4.02-1.7,2.67-4.88,7.63-9.97,8.18-4.18.45-7.22-.32-9.28-2.36-2.38-2.35-3.67-6.64-3.72-12.1h71.6c1.75,0,3.42-.76,4.7-2.13,5.79-6.23,5.46-32.49,5.45-32.73-1.24-15.83-8.07-28.66-19.75-37.12ZM1628.31,1002.16c2.72-5.82,7.67-9.49,11.78-11.02,4.01-1.49,7.73-1.26,9.95.6,2.24,1.88,3.21,5.51,2.86,10.42h-24.58Z"/>
    <path class="st0" d="M2089.12,1008.18c2.19-13.95,4.91-31.31-6.64-44.18-13.03-14.51-41.75-13.64-56.67-2.84.02-1.83-.42-3.16-1.58-4.33l-1.51-1.53-45.51,1.07-25.33,129.68h51.34l15.76-78.45.05-.32c1.07-8.05,9.8-13.86,14.95-13.38,3.05.28,4.48,3.12,4.25,8.43l-17.09,83.72h52.45l.7-4.13c1.92-11.25,4.47-22.79,6.93-33.96,2.82-12.76,5.73-25.96,7.77-38.97l.13-.81Z"/>
    <path class="st0" d="M2307.69,1001.19c-5.97-1.89-11.6-3.68-16.25-6.08-2.73-1.41-3.34-2.63-3.34-2.94,0-.44.73-1.48,2.31-2.31,2.53-1.33,6.88-1.94,10.8.74,1.95,1.33,2.41,3.63,2.72,5.15.9,4.42,3.67,5.08,5.25,5.08h43.67l-.29-5.23c-1.03-18.57-10.05-31.73-26.06-38.06-18.51-7.32-49.39-7.98-70.19,5.19-12,7.6-18.76,18.79-19.57,32.35-1.46,24.64,15.37,34.44,32.03,40.77,2.23.85,4.93,1.58,7.8,2.36,6.34,1.72,15.02,4.07,17.17,7.9.37.66.79,1.78.17,3.89-.07.24-.58.66-1.55,1.04-4.13,1.63-11.39.79-13.77-.59-2.88-1.68-3.76-5.27-4.28-7.41-.36-1.45-1.3-5.31-5.4-5.31h-44.29l-.03,4.93c-.09,14.24,5.16,26.01,15.18,34.06,8.54,6.86,20.59,11.04,34.87,12.1,2.91.22,6.28.37,9.95.37,15.74,0,36.95-2.88,50.5-16.26,8.84-8.72,12.84-20.44,11.89-34.82-1.65-25-22.51-31.61-39.28-36.93Z"/>
    <path class="st0" d="M1882.11,1047.24c-.18-.2-1.05-1.44-.49-6.81l9.23-45.2,22.28-.17.83-3.9c.59-2.77,1.28-5.52,2.01-8.42,1.8-7.18,3.67-14.6,3.84-22.33l.12-5.07h-20.68l5.62-30.9h-51.2l-6.66,30.85-17.55.22-8.15,36.39c-.24-1.11-.49-2.21-.78-3.28-4.37-16.2-14.27-27.45-28.64-32.51-12.07-4.26-31.27-3.83-43.71.98-23.79,9.19-38.16,37.74-41.86,61.95-3.79,24.83,2.8,46.67,17.63,58.41,9.58,7.59,21.39,11.51,33.67,11.51,6.79,0,13.72-1.2,20.49-3.64,19.59-7.06,33.66-22.62,37.62-41.62l1.24-5.96h-41.71c-2.01,0-4.57.96-5.28,5.54-.2,1.3-.68,4.36-1.96,4.87-5.71,2.27-16.5,2.14-18.27-.99-1.85-3.26-2.82-7.5-2.76-11.69l71.18-.12,1.07-3.51c3.66-11.99,4.57-24.98,2.69-36.63h16.92c-1.28,7.89-3.25,15.95-5.17,23.79-2.42,9.91-4.93,20.15-6.12,30.25-.78,6.65-1.76,14.92,2,23.26l.25.49c7.26,12.25,20.48,15.54,33.17,15.54,10.15,0,19.97-2.11,26.12-3.44l3.22-.69,7-36.53-6.65.17c-4.5.12-9.6.24-10.58-.82ZM1753.2,1002.16c1.51-4.02,4.51-7.83,8.07-9.93,3.31-1.95,6.53-2.15,9.57-.58,1.93,1,3.38,6.92,3.44,10.51h-21.07Z"/>
    <path class="st0" d="M1961.93,986.57c1.63-8.18,3.48-17.45,3.44-23.22,0-1.27-.29-2.28-.49-3.01-.05-.19-.13-.46-.14-.56l-.46-4.44h-36.15l-27.87,130.7h40.71l1.1-3.47c.73-2.31.85-4.63.95-6.69.06-1.27.12-2.46.32-3.31,1.19-5.19,2.4-10.39,3.62-15.59,4.85-20.81,9.87-42.32,13.71-63.82.33-1.85.79-4.16,1.28-6.6Z"/>
    <path class="st0" d="M1938.83,909.95c-4.6.37-8.94.72-12.99.86l-4.4.15-.4,4.36c-.39,4.33-1.66,8.54-3.01,12.99-1.7,5.64-3.46,11.47-3.5,17.92l-.03,4.99h50.13l1.28-.89c2.44-1.7,3.13-4.11,3.5-5.41.06-.22.12-.43.2-.65h0c1.47-3.9,5.34-21.34,5.49-25.5.18-5-1.05-8.5-7.63-9.31-8.94-1.1-18.96-.29-28.65.49Z"/>
    <path class="st0" d="M84.36,756.95c35.99,39.65,80.48,69.23,132.22,87.92,31.8,11.49,70.84,18.72,110.94,18.72,46.44,0,94.31-9.7,133.99-33.73,2.21-1.34,7.51-4.82,12.3-8.46,9.05-6.87,10.91-10.11,10.99-13.11l.03-1.36-63.22-112.65-.36-.4c-3.89-4.36-9.7-1.16-13.55.95-.82.45-1.94,1.06-2.37,1.22-56.89,20.34-125.71,5.24-171.25-37.56-38.12-35.83-57.23-85.59-52.43-136.5,4.95-52.44,33.99-99.21,79.69-128.33,49.69-31.66,111.29-34.42,164.8-7.38,54.89,27.74,89.91,80.12,93.71,140.15l-.04,326.48h173.88V218.44h-173.87v73.46c-.81-1.03-1.65-2.06-2.56-3.05-49.34-53.7-119.53-82.04-197.63-79.83-92.55,2.63-185.89,48.03-243.58,118.49-35.4,43.24-58.81,92.22-69.57,145.58-10.11,50.17-8.21,102.83,5.5,152.28,13.55,48.84,38.57,94.34,72.38,131.58Z"/>
    <path class="st0" d="M1727.35,718.13c40.34,56.9,100.96,103.21,166.33,127.06,33.57,12.25,67.44,18.45,100.71,18.45.87,0,1.75,0,2.62-.01,36.57-.36,71.52-8.27,103.88-23.51,3-1.41,12.91-6.68,22.25-12.47,17.94-11.11,19.51-15.2,19.59-18.43l.03-1.34-63.36-113.84-.63-.56c-3.84-3.4-9.06-.96-12.87.83-.88.41-1.78.84-2.27,1-39.8,13.2-81.63,12.07-117.79-3.17-56.65-23.88-99.32-79.53-103.76-135.34-1.41-17.73-2.31-35.06,2.14-52.24,10.21-39.4,26.95-67.95,54.28-92.57,48.88-44.05,113.6-55.99,173.11-31.95,61.13,24.7,101.81,81.5,106.18,148.26l-.04,324.6h174.81V218.44h-174.81v74.59c-.92-1.06-1.84-2.12-2.75-3.18-4.43-5.13-9-10.44-14.12-15.29-55.56-52.61-129.89-74.76-209.29-62.39-47.16,7.35-94,26.52-135.47,55.44-41.75,29.12-76.01,66.75-99.1,108.82-29.11,53.04-44,112.77-43.07,172.73.97,62.63,19.44,121.06,53.4,168.97Z"/>
    <path class="st0" d="M756.22,238.19c.55.79,1.1,1.57,1.62,2.33,7.42,10.85,15.28,21.7,22.89,32.19,3.33,4.6,6.66,9.19,9.96,13.78,132.33,184.51,265.94,364.77,414.36,564.39l1.49,2.01h217.98l-232.89-313.53,230.83-320.93h-215.27l-1.46,2.37c-45.84,74.74-86.2,142.3-123.21,206.23l-124.49-208.61h-211.7l2.32,6.59c1.68,4.77,4.8,9.23,7.56,13.16Z"/>
    <polygon class="st0" points="1459.31 218.44 1459.31 852.89 1635.06 852.89 1635.1 544.99 1635.11 544.59 1635.06 544.29 1635.06 218.44 1459.31 218.44"/>
  </g>
  <g>
    <g>
      <path class="st2" d="M1073.88,690.18l-123.21-54.86-5.09,1.52c-62.37,66.61-123.67,134.2-185.06,201.72l-7.01,9.38h203.73l116.63-157.76Z"/>
      <path class="st2" d="M897.32,1041.77l-6.11,7.47c129.55-.03,259.16.42,388.71-.47l42.15-88.47c-107.7-.02-215.45.01-323.15,0l-101.6,81.49Z"/>
      <path class="st2" d="M1571.23,176.1c100.27-27.46,76.34-181.46-35.78-170.6-31.99,3.1-62.44,28.51-72.2,58.92-21.81,67.97,39.65,130.4,107.98,111.69Z"/>
      <g>
        <path class="st2" d="M1514.1,921.91l-42.14,94.57-2.35-94.57h-62.76l-33.25,159.18h40.28l22.96-124.54c2.08-.83,1.34,2.17,1.4,3.27.44,8.91.77,18.29.98,27.12.73,31.34.02,62.8.9,94.14h36.53l51.06-120.79-23.9,120.79h43.09l30.91-159.18h-63.69Z"/>
        <path class="st2" d="M2190.84,960.3c-1.92,0-1.38,9.02-3.75,10.28-10.82-15.92-32.03-15.27-48.48-9.12-32.73,12.24-48.62,59.99-38.63,91.54,9.07,28.64,46.69,34.27,66.97,14.04-.24,16.34-12.87,40.01-32.38,31.91-6.9-2.86-6.3-10.37-6.95-10.37h-41.21c-1.08,37.32,41.93,43.31,70.61,39.22,49.02-7,51.76-58.71,60.23-98.03,4.96-23.01,9.53-46.32,13.4-69.47h-39.81ZM2172.99,1036.09c-7.93,13.7-29.24,17.72-32.01-1.59-2.2-15.3,5.76-45.34,24.73-45.75,21.73-.47,13.92,35.88,7.29,47.34Z"/>
        <path class="st2" d="M1626.49,959.82c-58.77,14.11-74.41,118.38-5.13,124.06,30.46,2.5,62.83-9.08,70.7-41.18h-40.75c-1,0-5.05,11.11-14.98,12.17-15.68,1.68-19.6-11.16-18.27-24.34h76.34c4.31,0,5.49-25.57,5.19-29.53-3-38.45-40.21-49.07-73.1-41.17ZM1657.41,1007.12h-35.59c3.99-25.14,41.85-33.02,35.59,0Z"/>
        <path class="st2" d="M2028.41,965.53c-2.14,1.62-6.61,7.27-8.06,7.87-2,.84-1.24-1.22-1.16-2.09.16-1.76,2.39-10.25,1.65-11.01l-39.35.93-23.41,119.86h41.21l14.96-74.47c2.3-17.37,30.42-27.53,29.1-3.68l-15.95,78.15h42.15c4.13-24.22,10.9-48.64,14.69-72.86,2.14-13.69,4.88-29.58-5.31-40.92-11.3-12.59-37.6-11.59-50.52-1.77Z"/>
        <path class="st2" d="M2289.31,999.51c-15.51-8.01,2.34-21.58,14.87-13,4.91,3.36,4.6,9.37,5.15,9.37h38.4c-.88-15.8-8-27.83-22.93-33.73-28.02-11.08-80.71-4.42-82.95,33.23-1.22,20.48,11.62,29.3,28.83,35.85,9.68,3.68,32.37,5.78,28.13,20.18-2.06,6.98-17.39,6.38-22.61,3.33-6.4-3.74-6.44-12.03-7.16-12.03h-39.34c-.16,27.38,20.55,39.34,45.44,41.19,31.53,2.35,69.59-6.25,67-45.44-1.95-29.45-33.95-29.17-52.85-38.93Z"/>
        <path class="st2" d="M1790.39,960.79c-11.2-3.95-29.13-3.37-40.25.93-36.93,14.27-55.48,86.09-22.94,111.86,29.53,23.38,76.32,5.03,83.81-30.88h-35.59c-.59,0-.12,7.96-5.4,10.05-6.12,2.43-20.66,3.54-24.45-3.16-3.17-5.6-4.08-12.82-2.94-19.08l72-.12c7.65-25.03,3.76-59.74-24.25-69.62ZM1777.77,1007.12h-30.44c.31-12.16,13.55-26.26,25.96-19.87,6.47,3.34,7.46,19.87,4.48,19.87Z"/>
        <path class="st2" d="M1876.85,1039.68l10.08-49.37,22.31-.17c2.09-9.85,5.51-19.72,5.75-29.84h-21.54l5.62-30.9h-41.21l-6.65,30.8-17.58.22-6.68,29.84h17.8c-2.33,19.79-9.75,39.93-12.06,59.57-.84,7.13-1.46,13.87,1.6,20.65,10.49,17.69,36.86,13.46,53.95,9.78l5.23-27.27c-12.26.31-18.12.64-16.6-13.32Z"/>
        <path class="st2" d="M1959.95,960.3h-27.63l-25.76,120.79h30.91c.97-3.05.5-6.75,1.16-9.61,6.02-26.22,12.51-52.52,17.28-79.17,1.36-7.63,4.69-21.92,4.65-28.93,0-1.09-.5-2.02-.61-3.08Z"/>
        <path class="st2" d="M1965.12,942.52c1.31-3.48,5.05-20.41,5.17-23.93.12-3.28-.07-3.82-3.27-4.21-12.54-1.55-28.15.97-40.86,1.39-.96,10.54-6.42,19.92-6.49,30.5h43.56c1.32-.92,1.38-2.4,1.88-3.73Z"/>
      </g>
      <path class="st2" d="M1629.18,509.1c-.56-.86-6.91-1.26-8.32-2.45-2.32-1.95,1.01-6.6-2.79-6.1.12,4.22-.58,9.72-.05,13.63.2,1.5,2.62,8.51,3.45,8.78,1.35.44,7.09-.56,7.84-2.74-.04-2.1.4-10.31-.12-11.11Z"/>
      <path class="st2" d="M1621.81,441.56c-3.76-.38-2.3.17-2.81,1.87,1.34,0,2.5-.5,2.81-1.87Z"/>
      <path class="st2" d="M1617.13,487.44c0-.07.91-.44.94-.94l-.94.94Z"/>
    </g>
    <g>
      <path class="st1" d="M218.44,840.21c73.59,26.59,172.43,26.73,240.65-14.58,3.89-2.35,20.81-13.61,20.9-17.46l-62.29-111c-1.78-1.99-7.79,2.56-10.52,3.54-60.26,21.54-130.3,4.66-176.35-38.62-84.35-79.29-68.22-211.31,27.99-272.61,111.18-70.84,258.11,7.68,266.18,136.79l-.04,321.67h163.92V223.39h-163.92v81.46c-4.56-3.27-7.45-8.56-11.22-12.67-117.92-128.34-330.74-87.28-433.68,38.44C-62.72,505.02,7.03,763.83,218.44,840.21Z"/>
      <path class="st1" d="M2182.88,223.39v82.4c-8.82-8.85-16.17-19.01-25.28-27.64-135.84-128.61-354.05-48.78-436.06,100.65-56.93,103.74-59.64,238.19,10.03,336.46,79.08,111.56,235.74,182.36,367.34,120.36,6.14-2.89,38.86-20.78,38.99-26.53l-62.3-111.92c-1.91-1.7-7.47,1.91-10.26,2.83-39.47,13.09-82.8,12.92-121.3-3.31-54.83-23.11-101.96-78.98-106.78-139.52-1.46-18.41-2.33-36.06,2.29-53.87,9.94-38.34,26.28-68.44,55.76-95.01,110.65-99.7,278.32-24.01,287.61,119.83l-.04,319.8h164.85V223.39h-164.85Z"/>
      <path class="st1" d="M1412.93,223.39h-202.79c-43.32,70.63-85.95,141.7-127.39,213.47l-127.39-213.47h-201.85c1.76,5,5.56,9.89,8.6,14.34,10.57,15.47,21.86,30.65,32.78,45.88,135.99,189.63,275.09,377.07,414.31,564.32h205.6l-229.18-308.53,227.3-316.02Z"/>
      <path class="st1" d="M10.73,1049.27c293.48-.05,587,.07,880.48,0l6.11-7.47,101.6-81.49H10.73v88.95Z"/>
      <path class="st1" d="M1630.24,223.39h-165.79v624.54h165.79l.04-302.95c-.02-.1-.03-.19-.04-.29V223.39Z"/>
    </g>
  </g>
</svg>